<svg width="77" height="77" viewBox="0 0 77 77" fill="none" xmlns="http://www.w3.org/2000/svg">
<path d="M9.43504 19.3114C30.8793 18.0924 50.5776 20.4797 71.6282 25.9876C75.6726 26.9495 75.3996 32.1558 75.1139 33.9272C74.5107 37.105 72.6377 38.5748 69.6568 38.2097C49.3744 36.3811 32.3079 36.8319 12.8096 40.4922C6.49538 42.0224 3.51445 37.1081 2.33986 32.2066C1.55574 29.1558 1.48907 19.9718 9.43504 19.3114Z" fill="#4848B7"/>
<path d="M41.3269 42.5938C50.6855 43.3842 59.1902 43.6763 68.5902 42.9588C71.4632 42.6604 72.7647 44.5366 73.06 47.0636C73.3552 49.5905 72.7457 53.1587 68.1394 55.4952C58.2569 60.7523 47.5427 59.6158 39.3237 53.8921C36.7047 52 36.1904 48.9715 36.6222 46.4477C37.0444 44.2953 38.7428 42.3461 41.3301 42.5938H41.3269Z" fill="#E60063"/>
</svg>
