<svg width="121" height="128" viewBox="0 0 121 128" fill="none" xmlns="http://www.w3.org/2000/svg">
<path d="M109.825 71.3358C75.581 70.0904 40.7146 72.5811 7.09331 78.1853C5.22547 78.1853 3.98023 79.4306 2.735 81.2987C2.11239 83.1667 1.48977 85.0348 2.11239 86.2801C3.35762 89.3935 5.84808 90.6389 8.96116 90.6389C41.3372 88.7709 73.0906 89.3935 104.221 93.1296C104.844 93.1296 105.467 93.1296 106.089 93.1296C111.693 93.1296 116.674 89.3935 118.542 84.4121C119.787 81.2987 119.164 78.1853 117.296 75.6945C116.051 73.2038 112.938 71.9585 109.825 71.3358Z" fill="#D81B60"/>
<path d="M109.202 58.2596C109.825 58.2596 109.825 58.2596 110.447 58.2596C112.938 58.2596 116.051 57.0142 117.919 55.1462C119.786 52.6555 121.032 49.5421 119.786 46.4286C117.919 40.2018 112.938 36.4657 106.089 35.8431C73.0903 35.2204 39.469 37.7111 6.47041 42.6926C3.35733 43.3152 0.866871 45.1833 0.244255 48.2967C-0.378361 50.1647 0.244255 52.0328 1.48949 53.9008C2.73472 55.1462 4.60256 55.7689 6.47041 55.7689C40.7143 53.2781 75.5808 53.9008 109.202 58.2596Z" fill="#4848B7"/>
<path d="M36.9801 19.6534C53.1681 19.0307 69.9787 19.0307 86.1667 20.2761C86.1667 20.2761 86.1667 20.2761 86.7893 20.2761C89.9024 20.2761 92.3929 18.408 93.0155 15.2946C93.6381 12.1812 92.3929 9.0678 89.9024 7.19976C88.6572 6.57708 86.7893 5.33171 84.9215 4.70903C68.1109 -2.14047 49.4324 -1.51779 33.2444 6.57708C30.7539 8.44512 29.5087 11.5585 30.1313 14.6719C31.3766 17.7853 33.867 19.6534 36.9801 19.6534Z" fill="#D81B60"/>
<path d="M86.1662 106.829C70.6008 106.829 55.0354 108.074 39.47 109.942C36.3569 110.565 33.8664 113.056 33.2438 116.169C32.6212 119.282 34.489 122.396 37.6021 123.641C45.0735 126.755 52.5449 128 60.6389 128C70.6008 128 80.5626 125.509 89.9018 120.528C93.0149 118.66 94.2602 115.546 93.0149 112.433C92.3923 108.697 89.2792 106.829 86.1662 106.829Z" fill="#4848B7"/>
</svg>
